<mxfile host="app.diagrams.net" agent="Mozilla/5.0 (Windows NT 10.0; Win64; x64; rv:137.0) Gecko/20100101 Firefox/137.0" version="26.1.1">
  <diagram name="Page-1" id="KLrool5dLcF6XQlQDd2L">
    <mxGraphModel dx="1186" dy="690" grid="0" gridSize="10" guides="1" tooltips="1" connect="1" arrows="1" fold="1" page="1" pageScale="1" pageWidth="1200" pageHeight="1920" math="0" shadow="0">
      <root>
        <mxCell id="0" />
        <mxCell id="1" parent="0" />
        <mxCell id="NDsmOrmQBEUlIEmzkd3U-1" value="MATRÄTTER" style="swimlane;fontStyle=1;childLayout=stackLayout;horizontal=1;startSize=30;horizontalStack=0;resizeParent=1;resizeParentMax=0;resizeLast=0;collapsible=1;marginBottom=0;whiteSpace=wrap;html=1;" vertex="1" parent="1">
          <mxGeometry x="409" y="102" width="170" height="120" as="geometry">
            <mxRectangle x="160" y="240" width="60" height="30" as="alternateBounds" />
          </mxGeometry>
        </mxCell>
        <mxCell id="NDsmOrmQBEUlIEmzkd3U-2" value="maträttId -&amp;nbsp; PK" style="text;strokeColor=#d6b656;fillColor=#fff2cc;align=left;verticalAlign=middle;spacingLeft=4;spacingRight=4;overflow=hidden;points=[[0,0.5],[1,0.5]];portConstraint=eastwest;rotatable=0;whiteSpace=wrap;html=1;" vertex="1" parent="NDsmOrmQBEUlIEmzkd3U-1">
          <mxGeometry y="30" width="170" height="30" as="geometry" />
        </mxCell>
        <mxCell id="NDsmOrmQBEUlIEmzkd3U-38" value="maträttBeskrivning" style="text;strokeColor=none;fillColor=none;align=left;verticalAlign=middle;spacingLeft=4;spacingRight=4;overflow=hidden;points=[[0,0.5],[1,0.5]];portConstraint=eastwest;rotatable=0;whiteSpace=wrap;html=1;" vertex="1" parent="NDsmOrmQBEUlIEmzkd3U-1">
          <mxGeometry y="60" width="170" height="30" as="geometry" />
        </mxCell>
        <mxCell id="NDsmOrmQBEUlIEmzkd3U-39" value="maträttIngredienser" style="text;strokeColor=none;fillColor=none;align=left;verticalAlign=middle;spacingLeft=4;spacingRight=4;overflow=hidden;points=[[0,0.5],[1,0.5]];portConstraint=eastwest;rotatable=0;whiteSpace=wrap;html=1;" vertex="1" parent="NDsmOrmQBEUlIEmzkd3U-1">
          <mxGeometry y="90" width="170" height="30" as="geometry" />
        </mxCell>
        <mxCell id="NDsmOrmQBEUlIEmzkd3U-5" value="INGREDIENS" style="swimlane;fontStyle=1;childLayout=stackLayout;horizontal=1;startSize=30;horizontalStack=0;resizeParent=1;resizeParentMax=0;resizeLast=0;collapsible=1;marginBottom=0;whiteSpace=wrap;html=1;" vertex="1" parent="1">
          <mxGeometry x="753" y="279" width="170" height="120" as="geometry">
            <mxRectangle x="160" y="240" width="60" height="30" as="alternateBounds" />
          </mxGeometry>
        </mxCell>
        <mxCell id="NDsmOrmQBEUlIEmzkd3U-6" value="ingrediensId - PK" style="text;strokeColor=#d6b656;fillColor=#fff2cc;align=left;verticalAlign=middle;spacingLeft=4;spacingRight=4;overflow=hidden;points=[[0,0.5],[1,0.5]];portConstraint=eastwest;rotatable=0;whiteSpace=wrap;html=1;" vertex="1" parent="NDsmOrmQBEUlIEmzkd3U-5">
          <mxGeometry y="30" width="170" height="30" as="geometry" />
        </mxCell>
        <mxCell id="NDsmOrmQBEUlIEmzkd3U-7" value="ingrediensNamn" style="text;strokeColor=none;fillColor=none;align=left;verticalAlign=middle;spacingLeft=4;spacingRight=4;overflow=hidden;points=[[0,0.5],[1,0.5]];portConstraint=eastwest;rotatable=0;whiteSpace=wrap;html=1;" vertex="1" parent="NDsmOrmQBEUlIEmzkd3U-5">
          <mxGeometry y="60" width="170" height="30" as="geometry" />
        </mxCell>
        <mxCell id="NDsmOrmQBEUlIEmzkd3U-43" value="ingrediensMängd - FK" style="text;strokeColor=#9673a6;fillColor=#e1d5e7;align=left;verticalAlign=middle;spacingLeft=4;spacingRight=4;overflow=hidden;points=[[0,0.5],[1,0.5]];portConstraint=eastwest;rotatable=0;whiteSpace=wrap;html=1;" vertex="1" parent="NDsmOrmQBEUlIEmzkd3U-5">
          <mxGeometry y="90" width="170" height="30" as="geometry" />
        </mxCell>
        <mxCell id="NDsmOrmQBEUlIEmzkd3U-9" value="MÄNGD" style="swimlane;fontStyle=1;childLayout=stackLayout;horizontal=1;startSize=30;horizontalStack=0;resizeParent=1;resizeParentMax=0;resizeLast=0;collapsible=1;marginBottom=0;whiteSpace=wrap;html=1;" vertex="1" parent="1">
          <mxGeometry x="1016" y="167" width="170" height="90" as="geometry">
            <mxRectangle x="160" y="240" width="60" height="30" as="alternateBounds" />
          </mxGeometry>
        </mxCell>
        <mxCell id="NDsmOrmQBEUlIEmzkd3U-10" value="mängdId - PK" style="text;strokeColor=#d6b656;fillColor=#fff2cc;align=left;verticalAlign=middle;spacingLeft=4;spacingRight=4;overflow=hidden;points=[[0,0.5],[1,0.5]];portConstraint=eastwest;rotatable=0;whiteSpace=wrap;html=1;" vertex="1" parent="NDsmOrmQBEUlIEmzkd3U-9">
          <mxGeometry y="30" width="170" height="30" as="geometry" />
        </mxCell>
        <mxCell id="NDsmOrmQBEUlIEmzkd3U-30" value="mängdNamn" style="text;strokeColor=none;fillColor=none;align=left;verticalAlign=middle;spacingLeft=4;spacingRight=4;overflow=hidden;points=[[0,0.5],[1,0.5]];portConstraint=eastwest;rotatable=0;whiteSpace=wrap;html=1;" vertex="1" parent="NDsmOrmQBEUlIEmzkd3U-9">
          <mxGeometry y="60" width="170" height="30" as="geometry" />
        </mxCell>
        <mxCell id="NDsmOrmQBEUlIEmzkd3U-13" value="RECEPT" style="swimlane;fontStyle=1;childLayout=stackLayout;horizontal=1;startSize=30;horizontalStack=0;resizeParent=1;resizeParentMax=0;resizeLast=0;collapsible=1;marginBottom=0;whiteSpace=wrap;html=1;" vertex="1" parent="1">
          <mxGeometry x="101" y="237" width="170" height="150" as="geometry">
            <mxRectangle x="160" y="240" width="60" height="30" as="alternateBounds" />
          </mxGeometry>
        </mxCell>
        <mxCell id="NDsmOrmQBEUlIEmzkd3U-14" value="receptID - PK" style="text;strokeColor=#d6b656;fillColor=#fff2cc;align=left;verticalAlign=middle;spacingLeft=4;spacingRight=4;overflow=hidden;points=[[0,0.5],[1,0.5]];portConstraint=eastwest;rotatable=0;whiteSpace=wrap;html=1;" vertex="1" parent="NDsmOrmQBEUlIEmzkd3U-13">
          <mxGeometry y="30" width="170" height="30" as="geometry" />
        </mxCell>
        <mxCell id="NDsmOrmQBEUlIEmzkd3U-21" value="receptNamn" style="text;strokeColor=none;fillColor=none;align=left;verticalAlign=middle;spacingLeft=4;spacingRight=4;overflow=hidden;points=[[0,0.5],[1,0.5]];portConstraint=eastwest;rotatable=0;whiteSpace=wrap;html=1;" vertex="1" parent="NDsmOrmQBEUlIEmzkd3U-13">
          <mxGeometry y="60" width="170" height="30" as="geometry" />
        </mxCell>
        <mxCell id="NDsmOrmQBEUlIEmzkd3U-15" value="receptMaträtt - FK" style="text;strokeColor=#9673a6;fillColor=#e1d5e7;align=left;verticalAlign=middle;spacingLeft=4;spacingRight=4;overflow=hidden;points=[[0,0.5],[1,0.5]];portConstraint=eastwest;rotatable=0;whiteSpace=wrap;html=1;" vertex="1" parent="NDsmOrmQBEUlIEmzkd3U-13">
          <mxGeometry y="90" width="170" height="30" as="geometry" />
        </mxCell>
        <mxCell id="NDsmOrmQBEUlIEmzkd3U-16" value="receptKokbok&amp;nbsp; - FK" style="text;strokeColor=#9673a6;fillColor=#e1d5e7;align=left;verticalAlign=middle;spacingLeft=4;spacingRight=4;overflow=hidden;points=[[0,0.5],[1,0.5]];portConstraint=eastwest;rotatable=0;whiteSpace=wrap;html=1;" vertex="1" parent="NDsmOrmQBEUlIEmzkd3U-13">
          <mxGeometry y="120" width="170" height="30" as="geometry" />
        </mxCell>
        <mxCell id="NDsmOrmQBEUlIEmzkd3U-17" value="KOKBOK" style="swimlane;fontStyle=1;childLayout=stackLayout;horizontal=1;startSize=30;horizontalStack=0;resizeParent=1;resizeParentMax=0;resizeLast=0;collapsible=1;marginBottom=0;whiteSpace=wrap;html=1;" vertex="1" parent="1">
          <mxGeometry x="108" y="464" width="170" height="120" as="geometry">
            <mxRectangle x="160" y="240" width="60" height="30" as="alternateBounds" />
          </mxGeometry>
        </mxCell>
        <mxCell id="NDsmOrmQBEUlIEmzkd3U-18" value="kokbokID - PK" style="text;strokeColor=#d6b656;fillColor=#fff2cc;align=left;verticalAlign=middle;spacingLeft=4;spacingRight=4;overflow=hidden;points=[[0,0.5],[1,0.5]];portConstraint=eastwest;rotatable=0;whiteSpace=wrap;html=1;" vertex="1" parent="NDsmOrmQBEUlIEmzkd3U-17">
          <mxGeometry y="30" width="170" height="30" as="geometry" />
        </mxCell>
        <mxCell id="NDsmOrmQBEUlIEmzkd3U-19" value="kokbokNamn" style="text;strokeColor=none;fillColor=none;align=left;verticalAlign=middle;spacingLeft=4;spacingRight=4;overflow=hidden;points=[[0,0.5],[1,0.5]];portConstraint=eastwest;rotatable=0;whiteSpace=wrap;html=1;" vertex="1" parent="NDsmOrmQBEUlIEmzkd3U-17">
          <mxGeometry y="60" width="170" height="30" as="geometry" />
        </mxCell>
        <mxCell id="NDsmOrmQBEUlIEmzkd3U-20" value="kokbokFörfattare" style="text;strokeColor=none;fillColor=none;align=left;verticalAlign=middle;spacingLeft=4;spacingRight=4;overflow=hidden;points=[[0,0.5],[1,0.5]];portConstraint=eastwest;rotatable=0;whiteSpace=wrap;html=1;" vertex="1" parent="NDsmOrmQBEUlIEmzkd3U-17">
          <mxGeometry y="90" width="170" height="30" as="geometry" />
        </mxCell>
        <mxCell id="NDsmOrmQBEUlIEmzkd3U-34" value="" style="edgeStyle=entityRelationEdgeStyle;fontSize=12;html=1;endArrow=ERmany;startArrow=ERmany;rounded=0;entryX=0;entryY=0.5;entryDx=0;entryDy=0;" edge="1" parent="1" source="NDsmOrmQBEUlIEmzkd3U-49" target="NDsmOrmQBEUlIEmzkd3U-6">
          <mxGeometry width="100" height="100" relative="1" as="geometry">
            <mxPoint x="271" y="402" as="sourcePoint" />
            <mxPoint x="476" y="372" as="targetPoint" />
          </mxGeometry>
        </mxCell>
        <mxCell id="NDsmOrmQBEUlIEmzkd3U-41" value="" style="edgeStyle=entityRelationEdgeStyle;fontSize=12;html=1;endArrow=ERmany;rounded=0;exitX=0;exitY=0.5;exitDx=0;exitDy=0;entryX=1.002;entryY=0.303;entryDx=0;entryDy=0;entryPerimeter=0;" edge="1" parent="1" source="NDsmOrmQBEUlIEmzkd3U-2" target="NDsmOrmQBEUlIEmzkd3U-15">
          <mxGeometry width="100" height="100" relative="1" as="geometry">
            <mxPoint x="331" y="358" as="sourcePoint" />
            <mxPoint x="431" y="258" as="targetPoint" />
          </mxGeometry>
        </mxCell>
        <mxCell id="NDsmOrmQBEUlIEmzkd3U-45" value="" style="edgeStyle=entityRelationEdgeStyle;fontSize=12;html=1;endArrow=ERmany;rounded=0;entryX=1;entryY=0.5;entryDx=0;entryDy=0;exitX=0;exitY=0.5;exitDx=0;exitDy=0;" edge="1" parent="1" source="NDsmOrmQBEUlIEmzkd3U-10" target="NDsmOrmQBEUlIEmzkd3U-43">
          <mxGeometry width="100" height="100" relative="1" as="geometry">
            <mxPoint x="900" y="221" as="sourcePoint" />
            <mxPoint x="910.9999999999998" y="424" as="targetPoint" />
            <Array as="points">
              <mxPoint x="973" y="205" />
              <mxPoint x="912" y="313" />
            </Array>
          </mxGeometry>
        </mxCell>
        <mxCell id="NDsmOrmQBEUlIEmzkd3U-46" value="RECEPTINGREDIENS" style="swimlane;fontStyle=1;childLayout=stackLayout;horizontal=1;startSize=30;horizontalStack=0;resizeParent=1;resizeParentMax=0;resizeLast=0;collapsible=1;marginBottom=0;whiteSpace=wrap;html=1;rounded=0;fillColor=#dae8fc;strokeColor=#6c8ebf;shadow=1;glass=0;" vertex="1" parent="1">
          <mxGeometry x="451" y="335" width="170" height="120" as="geometry">
            <mxRectangle x="160" y="240" width="60" height="30" as="alternateBounds" />
          </mxGeometry>
        </mxCell>
        <mxCell id="NDsmOrmQBEUlIEmzkd3U-47" value="receptIngredID - PK" style="text;strokeColor=#d6b656;fillColor=#fff2cc;align=left;verticalAlign=middle;spacingLeft=4;spacingRight=4;overflow=hidden;points=[[0,0.5],[1,0.5]];portConstraint=eastwest;rotatable=0;whiteSpace=wrap;html=1;" vertex="1" parent="NDsmOrmQBEUlIEmzkd3U-46">
          <mxGeometry y="30" width="170" height="30" as="geometry" />
        </mxCell>
        <mxCell id="NDsmOrmQBEUlIEmzkd3U-48" value="receptIngredRId - FK" style="text;strokeColor=#9673a6;fillColor=#e1d5e7;align=left;verticalAlign=middle;spacingLeft=4;spacingRight=4;overflow=hidden;points=[[0,0.5],[1,0.5]];portConstraint=eastwest;rotatable=0;whiteSpace=wrap;html=1;" vertex="1" parent="NDsmOrmQBEUlIEmzkd3U-46">
          <mxGeometry y="60" width="170" height="30" as="geometry" />
        </mxCell>
        <mxCell id="NDsmOrmQBEUlIEmzkd3U-49" value="receptIngredIId - FK" style="text;strokeColor=#9673a6;fillColor=#e1d5e7;align=left;verticalAlign=middle;spacingLeft=4;spacingRight=4;overflow=hidden;points=[[0,0.5],[1,0.5]];portConstraint=eastwest;rotatable=0;whiteSpace=wrap;html=1;" vertex="1" parent="NDsmOrmQBEUlIEmzkd3U-46">
          <mxGeometry y="90" width="170" height="30" as="geometry" />
        </mxCell>
        <mxCell id="NDsmOrmQBEUlIEmzkd3U-52" value="" style="edgeStyle=entityRelationEdgeStyle;fontSize=12;html=1;endArrow=ERmany;rounded=0;entryX=1;entryY=0.5;entryDx=0;entryDy=0;" edge="1" parent="1" source="NDsmOrmQBEUlIEmzkd3U-18" target="NDsmOrmQBEUlIEmzkd3U-16">
          <mxGeometry width="100" height="100" relative="1" as="geometry">
            <mxPoint x="295" y="493" as="sourcePoint" />
            <mxPoint x="395" y="393" as="targetPoint" />
          </mxGeometry>
        </mxCell>
        <mxCell id="NDsmOrmQBEUlIEmzkd3U-53" value="" style="edgeStyle=entityRelationEdgeStyle;fontSize=12;html=1;endArrow=ERmany;rounded=0;entryX=0;entryY=0.5;entryDx=0;entryDy=0;" edge="1" parent="1" source="NDsmOrmQBEUlIEmzkd3U-14" target="NDsmOrmQBEUlIEmzkd3U-48">
          <mxGeometry width="100" height="100" relative="1" as="geometry">
            <mxPoint x="261" y="375" as="sourcePoint" />
            <mxPoint x="361" y="275" as="targetPoint" />
            <Array as="points">
              <mxPoint x="445" y="448" />
            </Array>
          </mxGeometry>
        </mxCell>
      </root>
    </mxGraphModel>
  </diagram>
</mxfile>
